<svg xmlns="http://www.w3.org/2000/svg" viewBox="0 0 265.53 116.22"><defs><style>.cls-1,.cls-5{fill:#005c86;}.cls-2{fill:#00c0ed;}.cls-2,.cls-3,.cls-4,.cls-5,.cls-6,.cls-7{fill-rule:evenodd;}.cls-3{fill:#0096d6;}.cls-4{fill:#006fa2;}.cls-6{fill:#0093cc;}.cls-7{fill:#00b2e5;}</style></defs><g id="Layer_2" data-name="Layer 2"><g id="Layer_2-2" data-name="Layer 2"><path class="cls-1" d="M138.84,39.06a4.47,4.47,0,0,1-2.61-.6,3.27,3.27,0,0,1-1.45-2.76,3.38,3.38,0,0,1,1.31-2.79,3.23,3.23,0,0,1,2.06-.7,4.3,4.3,0,0,1,2.51.76v6.09Zm.41-5.43a2.59,2.59,0,0,0-1.16-.29,1.59,1.59,0,0,0-1.2.5,2.56,2.56,0,0,0-.68,1.77c0,1.45.82,2.19,2.47,2.2h.57Z"/><path class="cls-1" d="M142,39.06V37.81h4l0-1.73a2.49,2.49,0,0,0-.52-1.66,1.71,1.71,0,0,0-1.34-.56,2.43,2.43,0,0,0-1.64.68l-.63-1.09a3.47,3.47,0,0,1,2.31-.86,3,3,0,0,1,2.29.94,3.55,3.55,0,0,1,.92,2.57v3Z"/><path class="cls-1" d="M148.6,39.06V29.53H150v9.53Z"/><path class="cls-1" d="M151.36,39.06V37.81h4l0-1.73a2.49,2.49,0,0,0-.51-1.66,1.75,1.75,0,0,0-1.35-.56,2.39,2.39,0,0,0-1.63.68l-.64-1.09a3.5,3.5,0,0,1,2.31-.86,3.07,3.07,0,0,1,2.3.94,3.54,3.54,0,0,1,.91,2.57v3Z"/><path class="cls-1" d="M163.5,42.3a2.75,2.75,0,0,1-2.2-.93,3.89,3.89,0,0,1-.79-2.59,18.6,18.6,0,0,1,.32-3.31h1.39a16.37,16.37,0,0,0-.33,3.31c0,1.5.56,2.26,1.69,2.27h.6c1.12,0,1.68-.51,1.68-1.48V34.28h1.39V38H169V33.67h1.38V38h1.36c.34,0,.51-.21.51-.62V33.19h1.38v4a2.92,2.92,0,0,1-.08.82h32v1.26H167.24q0,3.06-3,3.06Z"/><path class="cls-1" d="M174.39,39.24V38H211.3V37.1a3.15,3.15,0,0,0-.67-2,2.57,2.57,0,0,0-2-.87,3,3,0,0,0-1.83.63,1.85,1.85,0,0,0-.47.45l-.76-1a3.66,3.66,0,0,1,3-1.42,3.78,3.78,0,0,1,3,1.33,5,5,0,0,1,1.09,3.3v1.71Z"/><path class="cls-1" d="M213.11,42.3V41h.58c1.18,0,1.77-.55,1.77-1.66v-6.2h1.39v6.38c0,1.84-1,2.75-3,2.75Z"/><path class="cls-1" d="M218.21,39.24V38h4V36.26a2.52,2.52,0,0,0-.51-1.67,1.72,1.72,0,0,0-1.35-.56,2.43,2.43,0,0,0-1.63.68l-.63-1.08a3.43,3.43,0,0,1,2.31-.87,3.05,3.05,0,0,1,2.29,1,3.52,3.52,0,0,1,.92,2.56v3Z"/><path class="cls-1" d="M225.36,28.58a.6.6,0,0,0-.36-.22c-.18,0-.28.17-.29.5h-.42c0-.73.22-1.1.68-1.1a1.14,1.14,0,0,1,.74.33.53.53,0,0,0,.33.17c.2,0,.32-.17.35-.52l.29.19c0,.62-.24.93-.7.93A1,1,0,0,1,225.36,28.58Zm-.57,10.66V29.71h1.39v9.53Z"/><rect class="cls-1" x="207.9" y="29.96" width="1.99" height="1.99"/><rect class="cls-1" x="169.07" y="29.96" width="1.99" height="1.99" transform="translate(139.1 201.01) rotate(-90)"/><rect class="cls-1" x="171.57" y="29.96" width="1.99" height="1.99" transform="translate(141.61 203.52) rotate(-90)"/><rect class="cls-1" x="170.31" y="27.7" width="1.99" height="1.99" transform="translate(142.61 200) rotate(-90)"/><rect class="cls-1" x="218.83" y="29.96" width="1.99" height="1.99"/><polygon class="cls-2" points="52.37 14.26 88.3 35 100.65 27.87 52.37 0 52.37 14.26"/><polygon class="cls-3" points="13.71 35 49.64 14.26 49.64 0 1.36 27.87 13.71 35"/><polygon class="cls-4" points="12.35 78.85 12.35 37.37 0 30.24 0 85.98 12.35 78.85"/><polygon class="cls-5" points="49.64 101.96 13.72 81.22 1.37 88.35 49.64 116.22 49.64 101.96"/><polygon class="cls-6" points="52.37 101.96 88.3 81.22 100.64 88.35 52.37 116.22 52.37 101.96"/><polygon class="cls-2" points="76.83 43.2 51.01 58.11 51.01 28.29 76.83 43.2"/><polygon class="cls-3" points="51.01 58.11 25.19 43.2 51.01 28.29 51.01 58.11"/><polygon class="cls-4" points="25.19 73.02 25.19 43.2 51.01 58.11 25.19 73.02"/><polygon class="cls-5" points="25.19 73.02 51.01 87.93 51.01 58.11 25.19 73.02"/><polygon class="cls-6" points="51.01 87.93 76.83 73.02 51.01 58.11 51.01 87.93"/><polygon class="cls-7" points="76.83 43.2 51.01 58.11 76.83 73.02 76.83 43.2"/><path class="cls-1" d="M119.2,54.49h6.86c.48.08.73.32.73.73V74.47a13.45,13.45,0,0,1-6.69,12.15A17.26,17.26,0,0,1,111,89.07q-6.85,0-6.85-6.86v-.73c0-.11.08-.16.16-.16h6.93q6.41,0,7.59-5.39a11.81,11.81,0,0,0,.24-2.44V54.65C119.07,54.54,119.12,54.49,119.2,54.49ZM119,67V49.84q0-4.74,4.73-4.74h2.86a.15.15,0,0,1,.16.17v21.9Zm4.08-32.9h.08a4.4,4.4,0,0,1,2.53.81,4,4,0,0,1,.77.82,3.09,3.09,0,0,1,.66,1.87v.08a3.18,3.18,0,0,1-.74,2,3.31,3.31,0,0,1-.73.69,4.15,4.15,0,0,1-2.49.82h0a4.17,4.17,0,0,1-2.57-.9,2.65,2.65,0,0,1-.69-.69,3.23,3.23,0,0,1-.65-2,3.3,3.3,0,0,1,.81-2.16,1.73,1.73,0,0,1,.57-.49,2.65,2.65,0,0,1,.57-.41A4.2,4.2,0,0,1,123.12,34.06Zm0,0h.08a4.4,4.4,0,0,1,2.53.81,4,4,0,0,1,.77.82,3.09,3.09,0,0,1,.66,1.87v.08a3.18,3.18,0,0,1-.74,2,3.31,3.31,0,0,1-.73.69,4.15,4.15,0,0,1-2.49.82h0a4.17,4.17,0,0,1-2.57-.9,2.65,2.65,0,0,1-.69-.69,3.23,3.23,0,0,1-.65-2,3.3,3.3,0,0,1,.81-2.16,1.73,1.73,0,0,1,.57-.49,2.65,2.65,0,0,1,.57-.41A4.2,4.2,0,0,1,123.12,34.06Zm0,0h.08a4.4,4.4,0,0,1,2.53.81,4,4,0,0,1,.77.82,3.09,3.09,0,0,1,.66,1.87v.08a3.18,3.18,0,0,1-.74,2,3.31,3.31,0,0,1-.73.69,4.15,4.15,0,0,1-2.49.82h0a4.17,4.17,0,0,1-2.57-.9,2.65,2.65,0,0,1-.69-.69,3.23,3.23,0,0,1-.65-2,3.3,3.3,0,0,1,.81-2.16,1.73,1.73,0,0,1,.57-.49,2.65,2.65,0,0,1,.57-.41A4.2,4.2,0,0,1,123.12,34.06Z"/><path class="cls-1" d="M141.43,54.49h6.85c.49.08.74.32.74.73V74.47a13.45,13.45,0,0,1-6.69,12.15,17.3,17.3,0,0,1-9.14,2.45q-6.85,0-6.85-6.86v-.73c0-.11.08-.16.17-.16h6.93q6.39,0,7.58-5.39a11.79,11.79,0,0,0,.25-2.44V54.65C141.29,54.54,141.35,54.49,141.43,54.49ZM141.27,67V49.84q0-4.74,4.73-4.74h2.85a.15.15,0,0,1,.17.17v21.9Zm7.58-5.54c.08,0,.14,0,.17.16v6.69a1.58,1.58,0,0,0,1.79,1.79h2.12v7.75h-2.61a9.46,9.46,0,0,1-3.67-.82q-5.39-3-5.38-8.23V62.15c0-.41.24-.65.73-.73Z"/><path class="cls-1" d="M169.85,68.76q-.07,9-9,9h-8c-.22-.08-.33-.33-.33-.73V70.22c0-.1.08-.16.16-.16h7.67a1.58,1.58,0,0,0,1.79-1.79V49.84q0-4.74,4.73-4.74h2.86c.11,0,.16.06.16.17Zm-12.8,12.56h.08a4,4,0,0,1,3.3,1.63,3.26,3.26,0,0,1,.61,1.87v.09a3.16,3.16,0,0,1-.73,2,3.92,3.92,0,0,1-.73.7,4.18,4.18,0,0,1-2.45.81h0a4.27,4.27,0,0,1-2.61-.89,2.32,2.32,0,0,1-.65-.7,3.1,3.1,0,0,1-.7-2A3.24,3.24,0,0,1,154,82.7a2.24,2.24,0,0,1,.53-.49,3,3,0,0,1,.61-.4A3.92,3.92,0,0,1,157.05,81.32Zm12.64-19.9c.08,0,.14,0,.16.16v6.69a1.59,1.59,0,0,0,1.8,1.79H240.9v7.75H171.16a9.46,9.46,0,0,1-3.67-.82q-5.38-3-5.39-8.23V62.15c0-.41.25-.65.74-.73Z"/><path class="cls-1" d="M244.74,61.58V37.36c0-3.16,1.6-4.73,4.73-4.73h2.85c.11,0,.17.08.17.16l0,29.36v6.61q0,5.22-5.39,8.23a9.46,9.46,0,0,1-3.67.82h-2.61V70.06h2.12a1.59,1.59,0,0,0,1.8-1.79Z"/><path class="cls-1" d="M262.52,32.63h2.85c.11,0,.16.08.16.16V73.08q0,4.73-4.56,4.73h-3a.14.14,0,0,1-.16-.16V37.36C257.81,34.2,259.39,32.63,262.52,32.63Z"/></g></g></svg>